<svg width="109" height="28" viewBox="0 0 109 28" fill="none" xmlns="http://www.w3.org/2000/svg">
<rect width="109" height="28" rx="14" fill="#FF8A00" fill-opacity="0.2"/>
<path d="M20.56 19V15.64C20.56 14.744 20.6907 14.03 20.952 13.498C21.2133 12.966 21.6053 12.5833 22.128 12.35C22.66 12.1167 23.3133 12 24.088 12C24.872 12 25.5253 12.1167 26.048 12.35C26.5707 12.5833 26.9627 12.966 27.224 13.498C27.4853 14.03 27.616 14.744 27.616 15.64V19H20.56ZM21.652 18.482L21.078 18.006H27.098L26.538 18.482V15.64C26.538 14.968 26.4633 14.4407 26.314 14.058C26.1647 13.666 25.908 13.3907 25.544 13.232C25.1893 13.0733 24.704 12.994 24.088 12.994C23.472 12.994 22.9867 13.0733 22.632 13.232C22.2773 13.3907 22.0253 13.666 21.876 14.058C21.7267 14.4407 21.652 14.968 21.652 15.64V18.482ZM22.59 10.74V9.48H23.682V10.74H22.59ZM24.508 10.74V9.48H25.6V10.74H24.508ZM29.0358 19V18.006H34.2578L33.3618 18.804V15.752C33.3618 15.0613 33.2824 14.5153 33.1238 14.114C32.9651 13.7127 32.7038 13.428 32.3398 13.26C31.9851 13.0827 31.5044 12.994 30.8978 12.994H29.7638V12H30.8978C31.6444 12 32.2838 12.1167 32.8158 12.35C33.3478 12.5833 33.7538 12.9753 34.0338 13.526C34.3138 14.0673 34.4538 14.8093 34.4538 15.752V19H29.0358ZM42.1234 19V18.006H43.6354V19H42.1234ZM38.8054 22.094C38.4787 22.094 38.1287 22.066 37.7554 22.01C37.3914 21.9633 36.99 21.8933 36.5514 21.8L36.7194 20.918C37.214 20.9833 37.6247 21.03 37.9514 21.058C38.2874 21.086 38.572 21.1 38.8054 21.1C39.58 21.1 40.1447 20.9507 40.4994 20.652C40.854 20.3627 41.0314 19.938 41.0314 19.378V12.63L41.5914 12.994H39.2254C38.684 12.994 38.264 13.0593 37.9654 13.19C37.676 13.3207 37.4754 13.568 37.3634 13.932C37.2514 14.2867 37.1954 14.8093 37.1954 15.5C37.1954 16.1907 37.2514 16.718 37.3634 17.082C37.4754 17.4367 37.676 17.6793 37.9654 17.81C38.264 17.9407 38.684 18.006 39.2254 18.006H41.0314V19H39.2254C38.4134 19 37.7787 18.8787 37.3214 18.636C36.8734 18.384 36.556 18.0013 36.3694 17.488C36.192 16.9653 36.1034 16.3027 36.1034 15.5C36.1034 14.6973 36.192 14.0393 36.3694 13.526C36.556 13.0033 36.8734 12.6207 37.3214 12.378C37.7787 12.126 38.4134 12 39.2254 12H42.1234V19.364C42.1234 19.9427 41.988 20.4373 41.7174 20.848C41.456 21.2587 41.078 21.5667 40.5834 21.772C40.0887 21.9867 39.496 22.094 38.8054 22.094ZM43.6354 19V18.006C43.7567 18.006 43.8314 18.0527 43.8594 18.146C43.8967 18.23 43.9154 18.3467 43.9154 18.496C43.9154 18.6453 43.8967 18.7667 43.8594 18.86C43.8314 18.9533 43.7567 19 43.6354 19ZM50.8671 19V18.006H52.3791V19H50.8671ZM43.9371 19V18.006H50.1111L49.7751 18.3V14.828C49.7751 14.2213 49.5838 13.7687 49.2011 13.47C48.8278 13.162 48.2538 13.008 47.4791 13.008C47.2364 13.008 46.8864 13.0313 46.4291 13.078C45.9718 13.1153 45.4911 13.1713 44.9871 13.246L44.8611 12.35C45.2438 12.2567 45.6638 12.1773 46.1211 12.112C46.5784 12.0373 47.0218 12 47.4511 12C48.1604 12 48.7671 12.112 49.2711 12.336C49.7844 12.5507 50.1764 12.868 50.4471 13.288C50.7271 13.708 50.8671 14.2213 50.8671 14.828V19H43.9371ZM43.9371 19C43.8158 19 43.7411 18.9533 43.7131 18.86C43.6758 18.7667 43.6571 18.6453 43.6571 18.496C43.6571 18.3467 43.6758 18.23 43.7131 18.146C43.7411 18.0527 43.8158 18.006 43.9371 18.006V19ZM52.3791 19V18.006C52.5004 18.006 52.5751 18.0527 52.6031 18.146C52.6404 18.23 52.6591 18.3467 52.6591 18.496C52.6591 18.6453 52.6404 18.7667 52.6031 18.86C52.5751 18.9533 52.5004 19 52.3791 19ZM46.9051 21.52V20.26H47.9971V21.52H46.9051ZM54.3667 19V8.962H55.4587V19H54.3667ZM52.6727 19V18.006H54.3667V19H52.6727ZM52.6727 19C52.5513 19 52.4767 18.9533 52.4487 18.86C52.4113 18.7667 52.3927 18.6453 52.3927 18.496C52.3927 18.3467 52.4113 18.23 52.4487 18.146C52.4767 18.0527 52.5513 18.006 52.6727 18.006V19ZM58.1721 19V8.962H59.2501V19H58.1721Z" fill="#FF8A00"/>
<path d="M82.5668 22.4171H79.4001C78.9335 22.4171 77.9168 22.2754 77.3751 21.7337L74.8501 19.7837L75.6168 18.7921L78.2001 20.7921C78.4085 20.9921 78.9335 21.1587 79.4001 21.1587H82.5668C83.3168 21.1587 84.1251 20.5587 84.2918 19.8837L86.3085 13.7587C86.4418 13.3921 86.4168 13.0587 86.2418 12.8171C86.0585 12.5587 85.7251 12.4087 85.3168 12.4087H81.9835C81.5501 12.4087 81.1501 12.2254 80.8751 11.9087C80.5918 11.5837 80.4668 11.1504 80.5335 10.7004L80.9501 8.0254C81.0501 7.55873 80.7335 7.03373 80.2835 6.88373C79.8751 6.73373 79.3501 6.9504 79.1668 7.21707L75.7501 12.3004L74.7168 11.6087L78.1335 6.5254C78.6585 5.74207 79.8085 5.36707 80.7085 5.70873C81.7501 6.0504 82.4168 7.2004 82.1835 8.26707L81.7751 10.8921C81.7668 10.9504 81.7668 11.0337 81.8251 11.1004C81.8668 11.1421 81.9251 11.1671 81.9918 11.1671H85.3251C86.1418 11.1671 86.8501 11.5087 87.2668 12.1004C87.6751 12.6754 87.7585 13.4337 87.4918 14.1671L85.5001 20.2337C85.1918 21.4421 83.9085 22.4171 82.5668 22.4171Z" fill="#FF8A00"/>
<path d="M73.4834 21.4993H72.6501C71.1084 21.4993 70.3584 20.7743 70.3584 19.291V11.1243C70.3584 9.64102 71.1084 8.91602 72.6501 8.91602H73.4834C75.0251 8.91602 75.7751 9.64102 75.7751 11.1243V19.291C75.7751 20.7743 75.0251 21.4993 73.4834 21.4993ZM72.6501 10.166C71.7417 10.166 71.6084 10.3827 71.6084 11.1243V19.291C71.6084 20.0327 71.7417 20.2493 72.6501 20.2493H73.4834C74.3917 20.2493 74.5251 20.0327 74.5251 19.291V11.1243C74.5251 10.3827 74.3917 10.166 73.4834 10.166H72.6501Z" fill="#FF8A00"/>
</svg>
