<svg width="114" height="32" viewBox="0 0 114 32" fill="none" xmlns="http://www.w3.org/2000/svg">
<rect width="114" height="32" rx="16" fill="#FF8A00" fill-opacity="0.2"/>
<path d="M28.2804 26.1005H24.4804C23.9204 26.1005 22.7004 25.9305 22.0504 25.2805L19.0204 22.9405L19.9404 21.7505L23.0404 24.1505C23.2904 24.3905 23.9204 24.5905 24.4804 24.5905H28.2804C29.1804 24.5905 30.1504 23.8705 30.3504 23.0605L32.7704 15.7105C32.9304 15.2705 32.9004 14.8705 32.6904 14.5805C32.4704 14.2705 32.0704 14.0905 31.5804 14.0905H27.5804C27.0604 14.0905 26.5804 13.8705 26.2504 13.4905C25.9104 13.1005 25.7604 12.5805 25.8404 12.0405L26.3404 8.83048C26.4604 8.27048 26.0804 7.64048 25.5404 7.46048C25.0504 7.28048 24.4204 7.54048 24.2004 7.86048L20.1004 13.9605L18.8604 13.1305L22.9604 7.03048C23.5904 6.09048 24.9704 5.64048 26.0504 6.05048C27.3004 6.46048 28.1004 7.84048 27.8204 9.12048L27.3304 12.2705C27.3204 12.3405 27.3204 12.4405 27.3904 12.5205C27.4404 12.5705 27.5104 12.6005 27.5904 12.6005H31.5904C32.5704 12.6005 33.4204 13.0105 33.9204 13.7205C34.4104 14.4105 34.5104 15.3205 34.1904 16.2005L31.8004 23.4805C31.4304 24.9305 29.8904 26.1005 28.2804 26.1005Z" fill="#FF8A00"/>
<path d="M17.3799 25.0004H16.3799C14.5299 25.0004 13.6299 24.1304 13.6299 22.3504V12.5504C13.6299 10.7704 14.5299 9.90039 16.3799 9.90039H17.3799C19.2299 9.90039 20.1299 10.7704 20.1299 12.5504V22.3504C20.1299 24.1304 19.2299 25.0004 17.3799 25.0004ZM16.3799 11.4004C15.2899 11.4004 15.1299 11.6604 15.1299 12.5504V22.3504C15.1299 23.2404 15.2899 23.5004 16.3799 23.5004H17.3799C18.4699 23.5004 18.6299 23.2404 18.6299 22.3504V12.5504C18.6299 11.6604 18.4699 11.4004 17.3799 11.4004H16.3799Z" fill="#FF8A00"/>
<path d="M60 24.336L58.592 22.016C58.4213 22.0587 58.2187 22.0907 57.984 22.112C57.76 22.144 57.5253 22.16 57.28 22.16C56.128 22.16 55.232 21.952 54.592 21.536C53.9627 21.1093 53.52 20.48 53.264 19.648C53.0187 18.8053 52.896 17.7653 52.896 16.528C52.896 15.3013 53.024 14.2613 53.28 13.408C53.536 12.5547 53.9787 11.904 54.608 11.456C55.248 10.9973 56.1387 10.768 57.28 10.768C58.4213 10.768 59.3067 10.992 59.936 11.44C60.576 11.888 61.024 12.544 61.28 13.408C61.536 14.2613 61.664 15.3013 61.664 16.528C61.664 17.8187 61.5307 18.88 61.264 19.712C61.008 20.544 60.5333 21.1627 59.84 21.568L61.2 23.776L60 24.336ZM57.28 21.024C58.1227 21.024 58.7627 20.864 59.2 20.544C59.6373 20.224 59.936 19.7333 60.096 19.072C60.256 18.4 60.336 17.552 60.336 16.528C60.336 15.536 60.2507 14.6987 60.08 14.016C59.92 13.3227 59.6213 12.8 59.184 12.448C58.7467 12.0853 58.112 11.904 57.28 11.904C56.448 11.904 55.8133 12.0853 55.376 12.448C54.9387 12.8 54.6347 13.3173 54.464 14C54.304 14.6827 54.224 15.5253 54.224 16.528C54.224 17.5307 54.304 18.368 54.464 19.04C54.624 19.7013 54.9227 20.1973 55.36 20.528C55.7973 20.8587 56.4373 21.024 57.28 21.024ZM66.4465 22.16C65.7638 22.16 65.2412 22.0213 64.8785 21.744C64.5158 21.4667 64.2652 21.0347 64.1265 20.448C63.9985 19.8613 63.9345 19.104 63.9345 18.176V14H65.1665V18.176C65.1665 18.88 65.1985 19.44 65.2625 19.856C65.3372 20.272 65.4918 20.576 65.7265 20.768C65.9612 20.9493 66.3132 21.04 66.7825 21.04C67.2518 21.04 67.6785 20.976 68.0625 20.848C68.4465 20.72 68.7558 20.592 68.9905 20.464V14H70.2225V22H68.9905V21.44C68.6492 21.632 68.2758 21.8027 67.8705 21.952C67.4758 22.0907 67.0012 22.16 66.4465 22.16ZM74.5741 22.16C73.8381 22.16 73.2781 21.952 72.8941 21.536C72.5101 21.12 72.3181 20.512 72.3181 19.712C72.3181 19.1893 72.4088 18.7627 72.5901 18.432C72.7715 18.1013 73.0435 17.8507 73.4061 17.68C73.7795 17.4987 74.2381 17.3867 74.7821 17.344L77.2461 17.104V16.416C77.2461 15.872 77.1235 15.488 76.8781 15.264C76.6435 15.04 76.2915 14.928 75.8221 14.928C75.5555 14.928 75.2355 14.9387 74.8621 14.96C74.4995 14.9813 74.1368 15.008 73.7741 15.04C73.4115 15.072 73.0915 15.104 72.8141 15.136L72.7501 14.192C73.0061 14.1387 73.3155 14.0853 73.6781 14.032C74.0408 13.9787 74.4195 13.936 74.8141 13.904C75.2088 13.8613 75.5715 13.84 75.9021 13.84C76.5101 13.84 77.0061 13.936 77.3901 14.128C77.7741 14.3093 78.0515 14.592 78.2221 14.976C78.4035 15.3493 78.4941 15.8293 78.4941 16.416V20.464C78.5155 20.6987 78.6061 20.8693 78.7661 20.976C78.9368 21.0827 79.1501 21.152 79.4061 21.184L79.3581 22.16C79.1235 22.16 78.9101 22.144 78.7181 22.112C78.5261 22.0907 78.3448 22.0533 78.1741 22C78.0355 21.9467 77.9021 21.8827 77.7741 21.808C77.6568 21.7333 77.5395 21.6427 77.4221 21.536C77.2195 21.6213 76.9581 21.712 76.6381 21.808C76.3288 21.904 75.9928 21.984 75.6301 22.048C75.2781 22.1227 74.9261 22.16 74.5741 22.16ZM74.7821 21.12C75.0701 21.12 75.3688 21.0933 75.6781 21.04C75.9875 20.9867 76.2808 20.9227 76.5581 20.848C76.8355 20.7733 77.0648 20.704 77.2461 20.64V18.032L74.9261 18.256C74.4461 18.2987 74.0995 18.4373 73.8861 18.672C73.6835 18.9067 73.5821 19.2427 73.5821 19.68C73.5821 20.128 73.6835 20.48 73.8861 20.736C74.0888 20.992 74.3875 21.12 74.7821 21.12ZM81.2574 22V10.528H82.4894V22H81.2574ZM85.1958 22V14H86.4278V22H85.1958ZM85.1958 12.24V10.8H86.4278V12.24H85.1958ZM91.651 22.176C91.0963 22.176 90.6537 22.0907 90.323 21.92C90.003 21.7493 89.7737 21.456 89.635 21.04C89.4963 20.6133 89.427 20.016 89.427 19.248V15.072H88.291V14H89.427V11.552H90.659V14H93.171V15.072H90.659V18.88C90.659 19.4453 90.6803 19.888 90.723 20.208C90.7763 20.5173 90.883 20.736 91.043 20.864C91.203 20.992 91.4537 21.056 91.795 21.056C91.9017 21.056 92.0403 21.0507 92.211 21.04C92.3817 21.0293 92.5523 21.0187 92.723 21.008C92.9043 20.9867 93.0643 20.9707 93.203 20.96L93.283 22C93.0483 22.032 92.771 22.0693 92.451 22.112C92.131 22.1547 91.8643 22.176 91.651 22.176ZM96.6004 25.536L97.6404 22H96.4404L94.1844 14H95.4324L97.3844 20.928H97.9284L99.8964 14H101.144L97.8484 25.536H96.6004Z" fill="#FF8A00"/>
</svg>
