<svg width="109" height="28" viewBox="0 0 109 28" fill="none" xmlns="http://www.w3.org/2000/svg">
<rect width="109" height="28" rx="14" fill="#2F83E5" fill-opacity="0.2"/>
<path d="M18.182 19C17.37 19 16.7353 18.8787 16.278 18.636C15.83 18.384 15.5127 18.0013 15.326 17.488C15.1487 16.9653 15.06 16.3027 15.06 15.5C15.06 14.6973 15.1487 14.0393 15.326 13.526C15.5127 13.0033 15.83 12.6207 16.278 12.378C16.7353 12.126 17.37 12 18.182 12H21.08V18.44H19.988V12.518L20.548 12.994H18.182C17.6407 12.994 17.2207 13.0593 16.922 13.19C16.6327 13.3207 16.432 13.568 16.32 13.932C16.208 14.2867 16.152 14.8093 16.152 15.5C16.152 16.1907 16.208 16.718 16.32 17.082C16.432 17.4367 16.6327 17.6793 16.922 17.81C17.2207 17.9407 17.6407 18.006 18.182 18.006H22.592V19H18.182ZM22.592 19V18.006C22.7133 18.006 22.788 18.0527 22.816 18.146C22.8533 18.23 22.872 18.3467 22.872 18.496C22.872 18.6453 22.8533 18.7667 22.816 18.86C22.788 18.9533 22.7133 19 22.592 19ZM16.824 10.74V9.48H17.916V10.74H16.824ZM18.742 10.74V9.48H19.834V10.74H18.742ZM25.4978 19V18.006H27.0098V19H25.4978ZM27.0098 19V18.006C27.1311 18.006 27.2058 18.0527 27.2338 18.146C27.2711 18.23 27.2898 18.3467 27.2898 18.496C27.2898 18.6453 27.2711 18.7667 27.2338 18.86C27.2058 18.9533 27.1311 19 27.0098 19ZM22.8938 19V18.006H24.9098L24.4058 18.412V12H25.4978V19H22.8938ZM22.8938 19C22.7724 19 22.6978 18.9533 22.6698 18.86C22.6324 18.7667 22.6138 18.6453 22.6138 18.496C22.6138 18.3467 22.6324 18.23 22.6698 18.146C22.6978 18.0527 22.7724 18.006 22.8938 18.006V19ZM23.4538 21.52V20.26H24.5458V21.52H23.4538ZM25.3718 21.52V20.26H26.4638V21.52H25.3718ZM27.309 19V18.006H29.185C29.745 18.006 30.2817 17.9173 30.795 17.74C31.3083 17.5533 31.7797 17.3107 32.209 17.012C32.6383 16.704 33.0117 16.368 33.329 16.004C33.6463 15.6307 33.8937 15.2527 34.071 14.87C34.2483 14.4873 34.337 14.128 34.337 13.792V12.952L34.925 13.834C34.3837 13.554 33.8517 13.344 33.329 13.204C32.8063 13.064 32.2977 12.994 31.803 12.994C31.3083 12.994 30.7997 13.064 30.277 13.204C29.7543 13.344 29.227 13.554 28.695 13.834L29.283 12.952V13.792C29.283 14.128 29.3717 14.4873 29.549 14.87C29.7263 15.2527 29.969 15.6307 30.277 16.004C30.5943 16.368 30.9677 16.704 31.397 17.012C31.8263 17.3107 32.2977 17.5533 32.811 17.74C33.3243 17.9173 33.861 18.006 34.421 18.006H36.213V19H34.421C33.693 19 33.0117 18.8833 32.377 18.65C31.7423 18.4167 31.1683 18.1087 30.655 17.726C30.1417 17.334 29.6983 16.9093 29.325 16.452C28.961 15.9853 28.681 15.5233 28.485 15.066C28.289 14.5993 28.191 14.1747 28.191 13.792V12.952C28.5923 12.7373 28.9983 12.56 29.409 12.42C29.8197 12.28 30.2257 12.1773 30.627 12.112C31.0377 12.0373 31.4297 12 31.803 12C32.1857 12 32.5777 12.0373 32.979 12.112C33.3803 12.1773 33.7863 12.28 34.197 12.42C34.6077 12.56 35.0137 12.7373 35.415 12.952V13.792C35.415 14.1747 35.317 14.5993 35.121 15.066C34.925 15.5233 34.6403 15.9853 34.267 16.452C33.903 16.9093 33.4643 17.334 32.951 17.726C32.4377 18.1087 31.8637 18.4167 31.229 18.65C30.5943 18.8833 29.913 19 29.185 19H27.309ZM27.309 19C27.1877 19 27.113 18.9533 27.085 18.86C27.0477 18.7667 27.029 18.6453 27.029 18.496C27.029 18.3467 27.0477 18.23 27.085 18.146C27.113 18.0527 27.1877 18.006 27.309 18.006V19ZM36.213 19V18.006C36.3343 18.006 36.409 18.0527 36.437 18.146C36.4743 18.23 36.493 18.3467 36.493 18.496C36.493 18.6453 36.4743 18.7667 36.437 18.86C36.409 18.9533 36.3343 19 36.213 19ZM36.5094 19V18.006H43.5794L42.8514 18.636V12.518L43.4254 12.994H41.0454C40.504 12.994 40.084 13.0593 39.7854 13.19C39.496 13.3207 39.2954 13.568 39.1834 13.932C39.0714 14.2867 39.0154 14.8093 39.0154 15.5C39.0154 16.1907 39.0714 16.718 39.1834 17.082C39.2954 17.4367 39.496 17.6793 39.7854 17.81C40.084 17.9407 40.504 18.006 41.0454 18.006V18.72C40.2334 18.72 39.5987 18.622 39.1414 18.426C38.6934 18.2207 38.376 17.8847 38.1894 17.418C38.012 16.942 37.9234 16.3027 37.9234 15.5C37.9234 14.6973 38.012 14.0393 38.1894 13.526C38.376 13.0033 38.6934 12.6207 39.1414 12.378C39.5987 12.126 40.2334 12 41.0454 12H43.9434V19H36.5094ZM36.5094 19C36.388 19 36.3134 18.9533 36.2854 18.86C36.248 18.7667 36.2294 18.6453 36.2294 18.496C36.2294 18.3467 36.248 18.23 36.2854 18.146C36.3134 18.0527 36.388 18.006 36.5094 18.006V19ZM39.7574 10.74V9.48H40.8494V10.74H39.7574ZM41.6754 10.74V9.48H42.7674V10.74H41.6754ZM46.6573 19V8.962H47.7353V19H46.6573ZM55.953 19V18.006H57.465V19H55.953ZM52.635 22.094C52.3084 22.094 51.9584 22.066 51.585 22.01C51.221 21.9633 50.8197 21.8933 50.381 21.8L50.549 20.918C51.0437 20.9833 51.4544 21.03 51.781 21.058C52.117 21.086 52.4017 21.1 52.635 21.1C53.4097 21.1 53.9744 20.9507 54.329 20.652C54.6837 20.3627 54.861 19.938 54.861 19.378V12.63L55.421 12.994H53.055C52.5137 12.994 52.0937 13.0593 51.795 13.19C51.5057 13.3207 51.305 13.568 51.193 13.932C51.081 14.2867 51.025 14.8093 51.025 15.5C51.025 16.1907 51.081 16.718 51.193 17.082C51.305 17.4367 51.5057 17.6793 51.795 17.81C52.0937 17.9407 52.5137 18.006 53.055 18.006H54.861V19H53.055C52.243 19 51.6084 18.8787 51.151 18.636C50.703 18.384 50.3857 18.0013 50.199 17.488C50.0217 16.9653 49.933 16.3027 49.933 15.5C49.933 14.6973 50.0217 14.0393 50.199 13.526C50.3857 13.0033 50.703 12.6207 51.151 12.378C51.6084 12.126 52.243 12 53.055 12H55.953V19.364C55.953 19.9427 55.8177 20.4373 55.547 20.848C55.2857 21.2587 54.9077 21.5667 54.413 21.772C53.9184 21.9867 53.3257 22.094 52.635 22.094ZM57.465 19V18.006C57.5864 18.006 57.661 18.0527 57.689 18.146C57.7264 18.23 57.745 18.3467 57.745 18.496C57.745 18.6453 57.7264 18.7667 57.689 18.86C57.661 18.9533 57.5864 19 57.465 19ZM59.4608 19V8.962H60.5528V19H59.4608ZM57.7668 19V18.006H59.4608V19H57.7668ZM57.7668 19C57.6455 19 57.5708 18.9533 57.5428 18.86C57.5055 18.7667 57.4868 18.6453 57.4868 18.496C57.4868 18.3467 57.5055 18.23 57.5428 18.146C57.5708 18.0527 57.6455 18.006 57.7668 18.006V19ZM63.2663 19V8.962H64.3443V19H63.2663Z" fill="#2F83E5"/>
<path d="M84.5002 22.9659C83.5918 22.9659 82.6918 22.6992 81.9835 22.1742L78.4002 19.4992C77.4502 18.7909 76.7085 17.3076 76.7085 16.1326V9.93255C76.7085 8.64922 77.6502 7.28255 78.8585 6.83255L83.0168 5.27422C83.8418 4.96589 85.1418 4.96589 85.9668 5.27422L90.1252 6.83255C91.3335 7.28255 92.2752 8.64922 92.2752 9.93255V16.1242C92.2752 17.3076 91.5335 18.7826 90.5835 19.4909L87.0002 22.1659C86.3085 22.6992 85.4085 22.9659 84.5002 22.9659ZM83.4585 6.44922L79.3002 8.00755C78.5918 8.27422 77.9668 9.17422 77.9668 9.94089V16.1326C77.9668 16.9242 78.5252 18.0326 79.1502 18.4992L82.7335 21.1742C83.6918 21.8909 85.3085 21.8909 86.2752 21.1742L89.8585 18.4992C90.4918 18.0242 91.0418 16.9242 91.0418 16.1326V9.93255C91.0418 9.17422 90.4168 8.27422 89.7085 7.99922L85.5502 6.44089C84.9835 6.24089 84.0168 6.24089 83.4585 6.44922Z" fill="#2F83E5"/>
<path d="M83.3835 15.8586C83.2252 15.8586 83.0669 15.8003 82.9419 15.6753L81.6002 14.3336C81.3585 14.0919 81.3585 13.6919 81.6002 13.4503C81.8419 13.2086 82.2419 13.2086 82.4835 13.4503L83.3835 14.3503L86.5252 11.2086C86.7669 10.9669 87.1669 10.9669 87.4085 11.2086C87.6502 11.4503 87.6502 11.8503 87.4085 12.0919L83.8252 15.6753C83.7002 15.8003 83.5419 15.8586 83.3835 15.8586Z" fill="#2F83E5"/>
</svg>
