<svg width="133" height="32" viewBox="0 0 133 32" fill="none" xmlns="http://www.w3.org/2000/svg">
<rect width="133" height="32" rx="16" fill="#2F83E5" fill-opacity="0.2"/>
<path d="M24.0004 26.7595C22.9104 26.7595 21.8304 26.4395 20.9804 25.8095L16.6804 22.5995C15.5404 21.7495 14.6504 19.9695 14.6504 18.5595V11.1195C14.6504 9.57945 15.7804 7.93945 17.2304 7.39945L22.2204 5.52945C23.2104 5.15945 24.7704 5.15945 25.7604 5.52945L30.7504 7.39945C32.2004 7.93945 33.3304 9.57945 33.3304 11.1195V18.5495C33.3304 19.9695 32.4404 21.7395 31.3004 22.5895L27.0004 25.7995C26.1704 26.4395 25.0904 26.7595 24.0004 26.7595ZM22.7504 6.93945L17.7604 8.80945C16.9104 9.12945 16.1604 10.2095 16.1604 11.1295V18.5595C16.1604 19.5095 16.8304 20.8395 17.5804 21.3995L21.8804 24.6095C23.0304 25.4695 24.9704 25.4695 26.1304 24.6095L30.4304 21.3995C31.1904 20.8295 31.8504 19.5095 31.8504 18.5595V11.1195C31.8504 10.2095 31.1004 9.12945 30.2504 8.79945L25.2604 6.92945C24.5804 6.68945 23.4204 6.68945 22.7504 6.93945Z" fill="#2F83E5"/>
<path d="M22.6602 18.2291C22.4702 18.2291 22.2802 18.1591 22.1302 18.0091L20.5202 16.3991C20.2302 16.1091 20.2302 15.6291 20.5202 15.3391C20.8102 15.0491 21.2902 15.0491 21.5802 15.3391L22.6602 16.4191L26.4302 12.6491C26.7202 12.3591 27.2002 12.3591 27.4902 12.6491C27.7802 12.9391 27.7802 13.4191 27.4902 13.7091L23.1902 18.0091C23.0402 18.1591 22.8502 18.2291 22.6602 18.2291Z" fill="#2F83E5"/>
<path d="M53.344 22V10.944H57.456C58.2347 10.944 58.8853 11.0613 59.408 11.296C59.9413 11.5307 60.3413 11.8987 60.608 12.4C60.8747 12.8907 61.008 13.5253 61.008 14.304C61.008 15.1147 60.8427 15.7973 60.512 16.352C60.192 16.9067 59.6853 17.296 58.992 17.52L61.104 22H59.68L57.728 17.792H54.624V22H53.344ZM54.624 16.672H57.472C58.016 16.672 58.448 16.5707 58.768 16.368C59.0987 16.1653 59.3333 15.888 59.472 15.536C59.6107 15.1733 59.68 14.768 59.68 14.32C59.68 13.5627 59.4987 12.9973 59.136 12.624C58.7733 12.2507 58.2133 12.064 57.456 12.064H54.624V16.672ZM66.1434 22.16C65.3434 22.16 64.7087 22.0053 64.2394 21.696C63.7807 21.3867 63.45 20.928 63.2474 20.32C63.0447 19.712 62.9434 18.9547 62.9434 18.048C62.9434 17.0347 63.082 16.224 63.3594 15.616C63.6367 14.9973 64.026 14.5493 64.5274 14.272C65.0287 13.984 65.6207 13.84 66.3034 13.84C67.37 13.84 68.1754 14.1387 68.7194 14.736C69.2634 15.3227 69.5354 16.272 69.5354 17.584L69.4714 18.528H64.2074C64.218 19.36 64.3727 19.9893 64.6714 20.416C64.97 20.8427 65.5087 21.056 66.2874 21.056C66.586 21.056 66.9114 21.0507 67.2634 21.04C67.626 21.0187 67.9834 20.9973 68.3354 20.976C68.6874 20.9547 68.986 20.9333 69.2314 20.912L69.2634 21.888C69.0074 21.9307 68.6927 21.9733 68.3194 22.016C67.9567 22.0587 67.5834 22.0907 67.1994 22.112C66.8154 22.144 66.4634 22.16 66.1434 22.16ZM64.2074 17.52H68.2874C68.2874 16.5387 68.1274 15.856 67.8074 15.472C67.498 15.0773 66.9967 14.88 66.3034 14.88C65.6314 14.88 65.114 15.0827 64.7514 15.488C64.3887 15.8933 64.2074 16.5707 64.2074 17.52ZM71.7855 22V10.528H73.0175V22H71.7855ZM75.7239 22V14H76.9559V22H75.7239ZM75.7239 12.24V10.8H76.9559V12.24H75.7239ZM81.2991 22.16C80.5631 22.16 80.0031 21.952 79.6191 21.536C79.2351 21.12 79.0431 20.512 79.0431 19.712C79.0431 19.1893 79.1338 18.7627 79.3151 18.432C79.4965 18.1013 79.7685 17.8507 80.1311 17.68C80.5045 17.4987 80.9631 17.3867 81.5071 17.344L83.9711 17.104V16.416C83.9711 15.872 83.8485 15.488 83.6031 15.264C83.3685 15.04 83.0165 14.928 82.5471 14.928C82.2805 14.928 81.9605 14.9387 81.5871 14.96C81.2245 14.9813 80.8618 15.008 80.4991 15.04C80.1365 15.072 79.8165 15.104 79.5391 15.136L79.4751 14.192C79.7311 14.1387 80.0405 14.0853 80.4031 14.032C80.7658 13.9787 81.1445 13.936 81.5391 13.904C81.9338 13.8613 82.2965 13.84 82.6271 13.84C83.2351 13.84 83.7311 13.936 84.1151 14.128C84.4991 14.3093 84.7765 14.592 84.9471 14.976C85.1285 15.3493 85.2191 15.8293 85.2191 16.416V20.464C85.2405 20.6987 85.3311 20.8693 85.4911 20.976C85.6618 21.0827 85.8751 21.152 86.1311 21.184L86.0831 22.16C85.8485 22.16 85.6351 22.144 85.4431 22.112C85.2511 22.0907 85.0698 22.0533 84.8991 22C84.7605 21.9467 84.6271 21.8827 84.4991 21.808C84.3818 21.7333 84.2645 21.6427 84.1471 21.536C83.9445 21.6213 83.6831 21.712 83.3631 21.808C83.0538 21.904 82.7178 21.984 82.3551 22.048C82.0031 22.1227 81.6511 22.16 81.2991 22.16ZM81.5071 21.12C81.7951 21.12 82.0938 21.0933 82.4031 21.04C82.7125 20.9867 83.0058 20.9227 83.2831 20.848C83.5605 20.7733 83.7898 20.704 83.9711 20.64V18.032L81.6511 18.256C81.1711 18.2987 80.8245 18.4373 80.6111 18.672C80.4085 18.9067 80.3071 19.2427 80.3071 19.68C80.3071 20.128 80.4085 20.48 80.6111 20.736C80.8138 20.992 81.1125 21.12 81.5071 21.12ZM90.5744 22.16C90.3397 22.16 90.057 22.1493 89.7264 22.128C89.4064 22.1173 89.081 22.096 88.7504 22.064C88.4197 22.032 88.1264 22.0053 87.8704 21.984V10.528H89.1184V14.384C89.3744 14.2667 89.721 14.1493 90.1584 14.032C90.5957 13.904 91.017 13.84 91.4224 13.84C92.1477 13.84 92.7237 13.9787 93.1504 14.256C93.5877 14.5227 93.897 14.9547 94.0784 15.552C94.2704 16.1387 94.3664 16.912 94.3664 17.872C94.3664 18.9387 94.249 19.7867 94.0144 20.416C93.7904 21.0347 93.401 21.4827 92.8464 21.76C92.3024 22.0267 91.545 22.16 90.5744 22.16ZM90.5584 21.04C91.2837 21.04 91.8224 20.9333 92.1744 20.72C92.537 20.496 92.777 20.1493 92.8944 19.68C93.0224 19.2107 93.0864 18.608 93.0864 17.872C93.0864 17.1893 93.033 16.6347 92.9264 16.208C92.8197 15.7813 92.633 15.4667 92.3664 15.264C92.1104 15.0613 91.753 14.96 91.2944 14.96C90.8997 14.96 90.4997 15.0133 90.0944 15.12C89.689 15.216 89.3637 15.312 89.1184 15.408V20.96C89.3424 20.9813 89.5984 21.0027 89.8864 21.024C90.185 21.0347 90.409 21.04 90.5584 21.04ZM96.6239 22V14H97.8559V22H96.6239ZM96.6239 12.24V10.8H97.8559V12.24H96.6239ZM100.551 22V10.528H101.783V22H100.551ZM104.49 22V14H105.722V22H104.49ZM104.49 12.24V10.8H105.722V12.24H104.49ZM110.945 22.176C110.39 22.176 109.947 22.0907 109.617 21.92C109.297 21.7493 109.067 21.456 108.929 21.04C108.79 20.6133 108.721 20.016 108.721 19.248V15.072H107.585V14H108.721V11.552H109.953V14H112.465V15.072H109.953V18.88C109.953 19.4453 109.974 19.888 110.017 20.208C110.07 20.5173 110.177 20.736 110.337 20.864C110.497 20.992 110.747 21.056 111.089 21.056C111.195 21.056 111.334 21.0507 111.505 21.04C111.675 21.0293 111.846 21.0187 112.017 21.008C112.198 20.9867 112.358 20.9707 112.497 20.96L112.577 22C112.342 22.032 112.065 22.0693 111.745 22.112C111.425 22.1547 111.158 22.176 110.945 22.176ZM115.894 25.536L116.934 22H115.734L113.478 14H114.726L116.678 20.928H117.222L119.19 14H120.438L117.142 25.536H115.894Z" fill="#2F83E5"/>
</svg>
