<svg width="109" height="28" viewBox="0 0 109 28" fill="none" xmlns="http://www.w3.org/2000/svg">
<rect width="109" height="28" rx="14" fill="#2FB93C" fill-opacity="0.2"/>
<path d="M26.494 22.472C25.7567 22.472 25.0893 22.3367 24.492 22.066C23.8947 21.7953 23.4233 21.4173 23.078 20.932C22.7327 20.4467 22.56 19.8913 22.56 19.266C22.56 19.07 22.574 18.8133 22.602 18.496C22.6393 18.1693 22.6813 17.81 22.728 17.418C22.784 17.0167 22.8447 16.6153 22.91 16.214C22.9753 15.8033 23.036 15.416 23.092 15.052L24.17 15.22C24.0673 15.864 23.974 16.4613 23.89 17.012C23.8153 17.5533 23.7547 18.02 23.708 18.412C23.6707 18.7947 23.652 19.0793 23.652 19.266C23.652 19.6953 23.7687 20.0733 24.002 20.4C24.2447 20.736 24.5807 20.9973 25.01 21.184C25.4393 21.38 25.934 21.478 26.494 21.478C27.054 21.478 27.5347 21.3893 27.936 21.212C28.3373 21.0347 28.6453 20.7873 28.86 20.47C29.0747 20.1527 29.182 19.7793 29.182 19.35V12H30.274V19.35C30.274 20.0033 30.1013 20.5633 29.756 21.03C29.42 21.4967 28.9673 21.8513 28.398 22.094C27.8287 22.346 27.194 22.472 26.494 22.472ZM25.892 12V10.74H26.984V12H25.892ZM34.0462 19V18.006H35.7542V19H34.0462ZM32.9682 19V8.962H34.0462V19H32.9682ZM35.7542 19V18.006C35.8756 18.006 35.9502 18.0527 35.9782 18.146C36.0156 18.23 36.0342 18.3467 36.0342 18.496C36.0342 18.6453 36.0156 18.7667 35.9782 18.86C35.9502 18.9533 35.8756 19 35.7542 19ZM36.0531 19V18.006H43.7111L42.8991 18.58V15.57C42.8991 14.9167 42.8245 14.4033 42.6751 14.03C42.5258 13.6567 42.2691 13.3907 41.9051 13.232C41.5505 13.0733 41.0651 12.994 40.4491 12.994C40.0571 12.994 39.6651 13.022 39.2731 13.078C38.8905 13.134 38.5918 13.2087 38.3771 13.302L39.0351 12.63C38.9791 12.854 38.9231 13.1387 38.8671 13.484C38.8111 13.82 38.7645 14.184 38.7271 14.576C38.6898 14.968 38.6711 15.36 38.6711 15.752C38.6711 16.1533 38.6898 16.5453 38.7271 16.928C38.7645 17.3107 38.8065 17.642 38.8531 17.922C38.8998 18.202 38.9371 18.398 38.9651 18.51L37.9291 18.804C37.8918 18.6827 37.8451 18.4727 37.7891 18.174C37.7425 17.8753 37.6958 17.516 37.6491 17.096C37.6118 16.676 37.5931 16.228 37.5931 15.752C37.5931 15.2947 37.6118 14.8513 37.6491 14.422C37.6958 13.9833 37.7471 13.5867 37.8031 13.232C37.8685 12.8773 37.9291 12.5927 37.9851 12.378C38.1905 12.294 38.5171 12.21 38.9651 12.126C39.4131 12.042 39.9078 12 40.4491 12C41.2331 12 41.8865 12.1167 42.4091 12.35C42.9411 12.5833 43.3378 12.9613 43.5991 13.484C43.8605 13.9973 43.9911 14.6927 43.9911 15.57V19H36.0531ZM36.0531 19C35.9318 19 35.8571 18.9533 35.8291 18.86C35.7918 18.7667 35.7731 18.6453 35.7731 18.496C35.7731 18.3467 35.7918 18.23 35.8291 18.146C35.8571 18.0527 35.9318 18.006 36.0531 18.006V19ZM45.8955 19V18.006H52.7415L52.1255 18.636V8.962H53.2175V19H45.8955ZM48.1355 18.006V10.95H49.2135V18.006H48.1355ZM55.9893 19V8.962H57.0673V19H55.9893Z" fill="#2FB93C"/>
<path d="M82 12.9577C81.6583 12.9577 81.375 12.6743 81.375 12.3327V10.666C81.375 8.04102 80.6333 6.29102 77 6.29102C73.3667 6.29102 72.625 8.04102 72.625 10.666V12.3327C72.625 12.6743 72.3417 12.9577 72 12.9577C71.6583 12.9577 71.375 12.6743 71.375 12.3327V10.666C71.375 8.24935 71.9583 5.04102 77 5.04102C82.0417 5.04102 82.625 8.24935 82.625 10.666V12.3327C82.625 12.6743 82.3417 12.9577 82 12.9577Z" fill="#2FB93C"/>
<path d="M81.1665 22.959H72.8332C69.1582 22.959 68.0415 21.8423 68.0415 18.1673V16.5007C68.0415 12.8257 69.1582 11.709 72.8332 11.709H81.1665C84.8415 11.709 85.9582 12.8257 85.9582 16.5007V18.1673C85.9582 21.8423 84.8415 22.959 81.1665 22.959ZM72.8332 12.959C69.8498 12.959 69.2915 13.5257 69.2915 16.5007V18.1673C69.2915 21.1423 69.8498 21.709 72.8332 21.709H81.1665C84.1498 21.709 84.7082 21.1423 84.7082 18.1673V16.5007C84.7082 13.5257 84.1498 12.959 81.1665 12.959H72.8332Z" fill="#2FB93C"/>
<path d="M73.6668 18.1657C73.5585 18.1657 73.4502 18.1408 73.3502 18.0991C73.2418 18.0574 73.1585 17.9991 73.0752 17.9241C72.9252 17.7657 72.8335 17.5574 72.8335 17.3324C72.8335 17.2241 72.8585 17.1157 72.9002 17.0157C72.9418 16.9074 73.0002 16.8241 73.0752 16.7408C73.1585 16.6658 73.2418 16.6074 73.3502 16.5657C73.6502 16.4324 74.0252 16.5074 74.2585 16.7408C74.3335 16.8241 74.3918 16.9157 74.4335 17.0157C74.4752 17.1157 74.5002 17.2241 74.5002 17.3324C74.5002 17.5491 74.4085 17.7657 74.2585 17.9241C74.1002 18.0741 73.8835 18.1657 73.6668 18.1657Z" fill="#2FB93C"/>
<path d="M76.9998 18.1674C76.7832 18.1674 76.5665 18.0757 76.4082 17.9257C76.2582 17.7674 76.1665 17.5591 76.1665 17.3341C76.1665 17.2257 76.1832 17.1174 76.2332 17.0174C76.2748 16.9174 76.3332 16.8257 76.4082 16.7424C76.5998 16.5507 76.8915 16.4591 77.1582 16.5174C77.2165 16.5257 77.2665 16.5424 77.3165 16.5674C77.3665 16.5841 77.4165 16.6091 77.4665 16.6424C77.5082 16.6674 77.5498 16.7091 77.5915 16.7424C77.6665 16.8257 77.7248 16.9174 77.7665 17.0174C77.8082 17.1174 77.8332 17.2257 77.8332 17.3341C77.8332 17.5591 77.7415 17.7674 77.5915 17.9257C77.5498 17.9591 77.5082 17.9924 77.4665 18.0257C77.4165 18.0591 77.3665 18.0841 77.3165 18.1008C77.2665 18.1258 77.2165 18.1424 77.1582 18.1508C77.1082 18.1591 77.0498 18.1674 76.9998 18.1674Z" fill="#2FB93C"/>
<path d="M80.3333 18.1674C80.1083 18.1674 79.9 18.0757 79.7417 17.9257C79.6667 17.8424 79.6083 17.7507 79.5667 17.6507C79.525 17.5507 79.5 17.4424 79.5 17.3341C79.5 17.1174 79.5917 16.9007 79.7417 16.7424C79.7833 16.7091 79.825 16.6758 79.8667 16.6424C79.9167 16.6091 79.9667 16.5841 80.0167 16.5674C80.0667 16.5424 80.1167 16.5257 80.1667 16.5174C80.4417 16.4591 80.725 16.5507 80.925 16.7424C81.075 16.9007 81.1667 17.1091 81.1667 17.3341C81.1667 17.4424 81.1417 17.5507 81.1 17.6507C81.0583 17.7591 81 17.8424 80.925 17.9257C80.7667 18.0757 80.55 18.1674 80.3333 18.1674Z" fill="#2FB93C"/>
</svg>
