<svg width="117" height="28" viewBox="0 0 117 28" fill="none" xmlns="http://www.w3.org/2000/svg">
<rect width="116.5" height="28" rx="14" fill="#FF8A00" fill-opacity="0.2"/>
<path d="M34.268 19V18.006H35.78V19H34.268ZM27.492 22.724C26.8107 22.724 26.19 22.598 25.63 22.346C25.07 22.094 24.6267 21.744 24.3 21.296C23.9733 20.848 23.81 20.33 23.81 19.742C23.81 19.546 23.8287 19.28 23.866 18.944C23.9033 18.5987 23.95 18.2253 24.006 17.824C24.062 17.4133 24.1227 16.998 24.188 16.578C24.2533 16.158 24.314 15.7753 24.37 15.43L25.448 15.598C25.3453 16.2327 25.252 16.8207 25.168 17.362C25.084 17.894 25.0187 18.356 24.972 18.748C24.9347 19.14 24.916 19.4433 24.916 19.658C24.916 20.0967 25.0233 20.47 25.238 20.778C25.4527 21.086 25.7513 21.3193 26.134 21.478C26.526 21.646 26.9787 21.73 27.492 21.73H30.74C31.5053 21.73 32.1027 21.5573 32.532 21.212C32.9613 20.8667 33.176 20.4 33.176 19.812V12.518L33.75 12.994H31.37C30.8287 12.994 30.4087 13.0593 30.11 13.19C29.8207 13.3207 29.62 13.568 29.508 13.932C29.396 14.2867 29.34 14.8093 29.34 15.5C29.34 16.1907 29.396 16.718 29.508 17.082C29.62 17.4367 29.8207 17.6793 30.11 17.81C30.4087 17.9407 30.8287 18.006 31.37 18.006H33.176V19H31.37C30.5487 19 29.914 18.8787 29.466 18.636C29.018 18.384 28.7007 18.0013 28.514 17.488C28.3367 16.9653 28.248 16.3027 28.248 15.5C28.248 14.6973 28.3367 14.0393 28.514 13.526C28.7007 13.0033 29.018 12.6207 29.466 12.378C29.914 12.126 30.5487 12 31.37 12H34.268V19.812C34.268 20.456 34.1 20.9927 33.764 21.422C33.4373 21.8607 33.0033 22.1873 32.462 22.402C31.93 22.6167 31.356 22.724 30.74 22.724H27.492ZM35.78 19V18.006C35.9013 18.006 35.976 18.0527 36.004 18.146C36.0413 18.23 36.06 18.3467 36.06 18.496C36.06 18.6453 36.0413 18.7667 36.004 18.86C35.976 18.9533 35.9013 19 35.78 19ZM30.082 10.74V9.48H31.174V10.74H30.082ZM32 10.74V9.48H33.092V10.74H32ZM38.6774 19V18.006H40.1894V19H38.6774ZM40.1894 19V18.006C40.3108 18.006 40.3854 18.0527 40.4134 18.146C40.4508 18.23 40.4694 18.3467 40.4694 18.496C40.4694 18.6453 40.4508 18.7667 40.4134 18.86C40.3854 18.9533 40.3108 19 40.1894 19ZM36.0734 19V18.006H38.0894L37.5854 18.412V12H38.6774V19H36.0734ZM36.0734 19C35.9521 19 35.8774 18.9533 35.8494 18.86C35.8121 18.7667 35.7934 18.6453 35.7934 18.496C35.7934 18.3467 35.8121 18.23 35.8494 18.146C35.8774 18.0527 35.9521 18.006 36.0734 18.006V19ZM36.6334 21.52V20.26H37.7254V21.52H36.6334ZM38.5514 21.52V20.26H39.6434V21.52H38.5514ZM40.4887 19V18.006H42.5047L42.0007 18.412V12H43.0927V19H40.4887ZM40.4887 19C40.3673 19 40.2927 18.9533 40.2647 18.86C40.2273 18.7667 40.2087 18.6453 40.2087 18.496C40.2087 18.3467 40.2273 18.23 40.2647 18.146C40.2927 18.0527 40.3673 18.006 40.4887 18.006V19ZM42.0427 8.892V7.702H43.0507V8.892H42.0427ZM41.0347 10.74V9.48H42.1267V10.74H41.0347ZM42.9527 10.74V9.48H44.0447V10.74H42.9527ZM51.1011 19V18.006H52.6131V19H51.1011ZM47.7831 22.094C47.4564 22.094 47.1064 22.066 46.7331 22.01C46.3691 21.9633 45.9678 21.8933 45.5291 21.8L45.6971 20.918C46.1918 20.9833 46.6024 21.03 46.9291 21.058C47.2651 21.086 47.5498 21.1 47.7831 21.1C48.5578 21.1 49.1224 20.9507 49.4771 20.652C49.8318 20.3627 50.0091 19.938 50.0091 19.378V12.63L50.5691 12.994H48.2031C47.6618 12.994 47.2418 13.0593 46.9431 13.19C46.6538 13.3207 46.4531 13.568 46.3411 13.932C46.2291 14.2867 46.1731 14.8093 46.1731 15.5C46.1731 16.1907 46.2291 16.718 46.3411 17.082C46.4531 17.4367 46.6538 17.6793 46.9431 17.81C47.2418 17.9407 47.6618 18.006 48.2031 18.006H50.0091V19H48.2031C47.3911 19 46.7564 18.8787 46.2991 18.636C45.8511 18.384 45.5338 18.0013 45.3471 17.488C45.1698 16.9653 45.0811 16.3027 45.0811 15.5C45.0811 14.6973 45.1698 14.0393 45.3471 13.526C45.5338 13.0033 45.8511 12.6207 46.2991 12.378C46.7564 12.126 47.3911 12 48.2031 12H51.1011V19.364C51.1011 19.9427 50.9658 20.4373 50.6951 20.848C50.4338 21.2587 50.0558 21.5667 49.5611 21.772C49.0664 21.9867 48.4738 22.094 47.7831 22.094ZM52.6131 19V18.006C52.7344 18.006 52.8091 18.0527 52.8371 18.146C52.8744 18.23 52.8931 18.3467 52.8931 18.496C52.8931 18.6453 52.8744 18.7667 52.8371 18.86C52.8091 18.9533 52.7344 19 52.6131 19ZM55.5188 19V18.006H57.0308V19H55.5188ZM57.0308 19V18.006C57.1522 18.006 57.2268 18.0527 57.2548 18.146C57.2922 18.23 57.3108 18.3467 57.3108 18.496C57.3108 18.6453 57.2922 18.7667 57.2548 18.86C57.2268 18.9533 57.1522 19 57.0308 19ZM52.9148 19V18.006H54.9308L54.4268 18.412V12H55.5188V19H52.9148ZM52.9148 19C52.7935 19 52.7188 18.9533 52.6908 18.86C52.6535 18.7667 52.6348 18.6453 52.6348 18.496C52.6348 18.3467 52.6535 18.23 52.6908 18.146C52.7188 18.0527 52.7935 18.006 52.9148 18.006V19ZM53.4748 10.74V9.48H54.5668V10.74H53.4748ZM55.3928 10.74V9.48H56.4848V10.74H55.3928ZM59.0241 19V8.962H60.1161V19H59.0241ZM57.3301 19V18.006H59.0241V19H57.3301ZM57.3301 19C57.2087 19 57.1341 18.9533 57.1061 18.86C57.0687 18.7667 57.0501 18.6453 57.0501 18.496C57.0501 18.3467 57.0687 18.23 57.1061 18.146C57.1341 18.0527 57.2087 18.006 57.3301 18.006V19ZM62.8295 19V8.962H63.9075V19H62.8295Z" fill="#FF8A00"/>
<path d="M86.5833 22.9577H79.9167C76.875 22.9577 75.125 21.2077 75.125 18.166V9.83268C75.125 6.79102 76.875 5.04102 79.9167 5.04102H86.5833C89.625 5.04102 91.375 6.79102 91.375 9.83268V18.166C91.375 21.2077 89.625 22.9577 86.5833 22.9577ZM79.9167 6.29102C77.5333 6.29102 76.375 7.44935 76.375 9.83268V18.166C76.375 20.5493 77.5333 21.7077 79.9167 21.7077H86.5833C88.9667 21.7077 90.125 20.5493 90.125 18.166V9.83268C90.125 7.44935 88.9667 6.29102 86.5833 6.29102H79.9167Z" fill="#FF8A00"/>
<path d="M80.7502 13.2577C80.6085 13.2577 80.4668 13.2327 80.3335 13.1744C79.9502 13.0077 79.7085 12.6327 79.7085 12.2243V5.66602C79.7085 5.32435 79.9918 5.04102 80.3335 5.04102H86.1668C86.5085 5.04102 86.7918 5.32435 86.7918 5.66602V12.216C86.7918 12.6327 86.5502 13.0077 86.1668 13.166C85.7918 13.3327 85.3502 13.2577 85.0419 12.9744L83.2502 11.3327L81.4585 12.9827C81.2585 13.166 81.0085 13.2577 80.7502 13.2577ZM83.2502 10.0077C83.5002 10.0077 83.7585 10.0993 83.9585 10.2827L85.5418 11.741V6.29102H80.9585V11.741L82.5418 10.2827C82.7418 10.0993 83.0002 10.0077 83.2502 10.0077Z" fill="#FF8A00"/>
<path d="M87.8332 16.291H84.2915C83.9498 16.291 83.6665 16.0077 83.6665 15.666C83.6665 15.3243 83.9498 15.041 84.2915 15.041H87.8332C88.1748 15.041 88.4582 15.3243 88.4582 15.666C88.4582 16.0077 88.1748 16.291 87.8332 16.291Z" fill="#FF8A00"/>
<path d="M87.8333 19.625H80.75C80.4083 19.625 80.125 19.3417 80.125 19C80.125 18.6583 80.4083 18.375 80.75 18.375H87.8333C88.175 18.375 88.4583 18.6583 88.4583 19C88.4583 19.3417 88.175 19.625 87.8333 19.625Z" fill="#FF8A00"/>
</svg>
