<svg width="117" height="28" viewBox="0 0 117 28" fill="none" xmlns="http://www.w3.org/2000/svg">
<rect x="0.5" width="116.5" height="28" rx="14" fill="#2FB93C" fill-opacity="0.2"/>
<path d="M23.932 19C23.12 19 22.4853 18.8787 22.028 18.636C21.58 18.384 21.2627 18.0013 21.076 17.488C20.8987 16.9653 20.81 16.3027 20.81 15.5C20.81 14.6973 20.8987 14.0393 21.076 13.526C21.2627 13.0033 21.58 12.6207 22.028 12.378C22.4853 12.126 23.12 12 23.932 12H26.83V18.44H25.738V12.518L26.298 12.994H23.932C23.3907 12.994 22.9707 13.0593 22.672 13.19C22.3827 13.3207 22.182 13.568 22.07 13.932C21.958 14.2867 21.902 14.8093 21.902 15.5C21.902 16.1907 21.958 16.718 22.07 17.082C22.182 17.4367 22.3827 17.6793 22.672 17.81C22.9707 17.9407 23.3907 18.006 23.932 18.006H28.342V19H23.932ZM28.342 19V18.006C28.4633 18.006 28.538 18.0527 28.566 18.146C28.6033 18.23 28.622 18.3467 28.622 18.496C28.622 18.6453 28.6033 18.7667 28.566 18.86C28.538 18.9533 28.4633 19 28.342 19ZM22.574 10.74V9.48H23.666V10.74H22.574ZM24.492 10.74V9.48H25.584V10.74H24.492ZM28.6438 19V18.006H37.9258L36.9178 18.916V15.626C36.9178 15.038 36.8338 14.5527 36.6658 14.17C36.5071 13.778 36.2644 13.484 35.9378 13.288C35.6204 13.092 35.2191 12.994 34.7338 12.994C34.3231 12.994 33.9404 13.064 33.5858 13.204C33.2404 13.3347 32.9184 13.512 32.6198 13.736C32.3211 13.9507 32.0411 14.1933 31.7798 14.464C31.5278 14.7253 31.2944 14.9913 31.0798 15.262C30.8651 15.5327 30.6691 15.78 30.4918 16.004L30.1278 15.01C30.4171 14.646 30.7111 14.2867 31.0098 13.932C31.3084 13.5773 31.6351 13.2553 31.9898 12.966C32.3444 12.6767 32.7458 12.4433 33.1938 12.266C33.6418 12.0887 34.1551 12 34.7338 12C35.3964 12 35.9378 12.112 36.3578 12.336C36.7871 12.56 37.1184 12.8587 37.3518 13.232C37.5944 13.596 37.7624 13.988 37.8558 14.408C37.9491 14.828 37.9958 15.234 37.9958 15.626V19H28.6438ZM29.5678 18.006V8.962H30.6598V18.006H29.5678ZM28.6438 19C28.5224 19 28.4478 18.9533 28.4198 18.86C28.3824 18.7667 28.3638 18.6453 28.3638 18.496C28.3638 18.3467 28.3824 18.23 28.4198 18.146C28.4478 18.0527 28.5224 18.006 28.6438 18.006V19ZM41.77 19V18.006H43.478V19H41.77ZM40.692 19V8.962H41.77V19H40.692ZM43.478 19V18.006C43.5994 18.006 43.674 18.0527 43.702 18.146C43.7394 18.23 43.758 18.3467 43.758 18.496C43.758 18.6453 43.7394 18.7667 43.702 18.86C43.674 18.9533 43.5994 19 43.478 19ZM54.305 19V18.006H55.817V19H54.305ZM51.141 19C50.8236 19 50.511 18.9393 50.203 18.818C49.9043 18.6967 49.615 18.5053 49.335 18.244L50.049 17.502C50.2636 17.6793 50.455 17.81 50.623 17.894C50.791 17.9687 50.9636 18.006 51.141 18.006H53.633L53.213 18.454V15.108C53.213 14.94 53.1943 14.702 53.157 14.394C53.129 14.086 53.0823 13.7407 53.017 13.358C52.961 12.966 52.891 12.574 52.807 12.182L53.871 12C53.9363 12.3267 54.0016 12.6907 54.067 13.092C54.1323 13.4933 54.1883 13.876 54.235 14.24C54.2816 14.5947 54.305 14.884 54.305 15.108V19H51.141ZM43.777 19V18.006H45.821L45.541 18.286V13.4H46.619V19H43.777ZM46.619 19V18.006H48.201C48.5183 18.006 48.7563 17.9593 48.915 17.866C49.083 17.7727 49.1996 17.586 49.265 17.306C49.3303 17.026 49.363 16.6153 49.363 16.074V12.7H50.455V16.074C50.455 16.802 50.3756 17.3807 50.217 17.81C50.0676 18.2393 49.8296 18.5473 49.503 18.734C49.1763 18.9113 48.7423 19 48.201 19H46.619ZM43.777 19C43.6556 19 43.581 18.9533 43.553 18.86C43.5156 18.7667 43.497 18.6453 43.497 18.496C43.497 18.3467 43.5156 18.23 43.553 18.146C43.581 18.0527 43.6556 18.006 43.777 18.006V19ZM55.817 19V18.006C55.9383 18.006 56.013 18.0527 56.041 18.146C56.0783 18.23 56.097 18.3467 56.097 18.496C56.097 18.6453 56.0783 18.7667 56.041 18.86C56.013 18.9533 55.9383 19 55.817 19ZM58.7259 19V18.006H60.2379V19H58.7259ZM56.1219 19V18.006H58.1379L57.6339 18.412V12H58.7259V19H56.1219ZM56.1219 19C56.0005 19 55.9259 18.9533 55.8979 18.86C55.8605 18.7667 55.8419 18.6453 55.8419 18.496C55.8419 18.3467 55.8605 18.23 55.8979 18.146C55.9259 18.0527 56.0005 18.006 56.1219 18.006V19ZM60.2379 19V18.006C60.3592 18.006 60.4339 18.0527 60.4619 18.146C60.4992 18.23 60.5179 18.3467 60.5179 18.496C60.5179 18.6453 60.4992 18.7667 60.4619 18.86C60.4339 18.9533 60.3592 19 60.2379 19ZM57.6339 21.52V20.26H58.7259V21.52H57.6339ZM62.2311 19V8.962H63.3231V19H62.2311ZM60.5371 19V18.006H62.2311V19H60.5371ZM60.5371 19C60.4158 19 60.3411 18.9533 60.3131 18.86C60.2758 18.7667 60.2571 18.6453 60.2571 18.496C60.2571 18.3467 60.2758 18.23 60.3131 18.146C60.3411 18.0527 60.4158 18.006 60.5371 18.006V19ZM66.0366 19V8.962H67.1146V19H66.0366Z" fill="#2FB93C"/>
<path d="M87.2498 17.9577C86.9165 17.9577 86.5832 17.9327 86.2665 17.8743C84.4998 17.616 82.8915 16.5993 81.8748 15.091C81.1665 14.0243 80.7915 12.7827 80.7915 11.4993C80.7915 7.94102 83.6915 5.04102 87.2498 5.04102C90.8082 5.04102 93.7082 7.94102 93.7082 11.4993C93.7082 12.7827 93.3332 14.0243 92.6248 15.091C91.5998 16.6077 89.9915 17.616 88.2082 17.8827C87.9165 17.9327 87.5832 17.9577 87.2498 17.9577ZM87.2498 6.29102C84.3748 6.29102 82.0415 8.62435 82.0415 11.4993C82.0415 12.541 82.3415 13.541 82.9082 14.391C83.7332 15.6077 85.0248 16.4244 86.4582 16.6327C86.9915 16.7244 87.5165 16.7244 88.0082 16.6327C89.4665 16.4244 90.7582 15.5993 91.5832 14.3827C92.1498 13.5327 92.4498 12.5327 92.4498 11.491C92.4582 8.62434 90.1248 6.29102 87.2498 6.29102Z" fill="#2FB93C"/>
<path d="M82.6416 22.8246C82.5249 22.8246 82.4166 22.808 82.2999 22.783C81.7583 22.658 81.3416 22.2413 81.2166 21.6996L80.9249 20.4746C80.9083 20.3996 80.8499 20.3413 80.7666 20.3163L79.3916 19.9913C78.8749 19.8663 78.4666 19.483 78.3249 18.9746C78.1833 18.4663 78.3249 17.9163 78.6999 17.5413L81.9499 14.2913C82.0833 14.158 82.2666 14.0913 82.4499 14.108C82.6333 14.1247 82.7999 14.2246 82.9083 14.383C83.7333 15.5996 85.0249 16.4247 86.4666 16.633C86.9999 16.7247 87.5249 16.7247 88.0166 16.633C89.4749 16.4247 90.7666 15.5996 91.5916 14.383C91.6916 14.2246 91.8666 14.1247 92.0499 14.108C92.2333 14.0913 92.4166 14.158 92.5499 14.2913L95.7999 17.5413C96.1749 17.9163 96.3166 18.4663 96.1749 18.9746C96.0333 19.483 95.6166 19.8747 95.1083 19.9913L93.7333 20.3163C93.6583 20.333 93.5999 20.3913 93.5749 20.4746L93.2833 21.6996C93.1583 22.2413 92.7416 22.658 92.1999 22.783C91.6583 22.9163 91.0999 22.7246 90.7499 22.2996L87.2499 18.2747L83.7499 22.308C83.4666 22.6413 83.0666 22.8246 82.6416 22.8246ZM82.3249 15.6913L79.5833 18.433C79.5083 18.508 79.5166 18.5913 79.5333 18.6413C79.5416 18.683 79.5833 18.7663 79.6833 18.783L81.0583 19.108C81.5999 19.233 82.0166 19.6496 82.1416 20.1913L82.4333 21.4163C82.4583 21.5246 82.5416 21.558 82.5916 21.5746C82.6416 21.583 82.7249 21.5913 82.7999 21.508L85.9916 17.833C84.5749 17.558 83.2749 16.7996 82.3249 15.6913ZM88.5083 17.8246L91.6999 21.4913C91.7749 21.583 91.8666 21.583 91.9166 21.5663C91.9666 21.558 92.0416 21.5163 92.0749 21.408L92.3666 20.183C92.4916 19.6413 92.9083 19.2246 93.4499 19.0996L94.8249 18.7747C94.9249 18.7497 94.9666 18.6746 94.9749 18.633C94.9916 18.5913 94.9999 18.4996 94.9249 18.4246L92.1833 15.683C91.2249 16.7913 89.9333 17.5496 88.5083 17.8246Z" fill="#2FB93C"/>
<path d="M88.8253 14.7409C88.6086 14.7409 88.3503 14.6826 88.0419 14.4992L87.2503 14.0242L86.4586 14.4909C85.7336 14.9242 85.2586 14.6742 85.0836 14.5492C84.9086 14.4242 84.5336 14.0492 84.7253 13.2242L84.9253 12.3659L84.2586 11.7492C83.8919 11.3826 83.7586 10.9409 83.8836 10.5409C84.0086 10.1409 84.3753 9.85755 84.8919 9.77422L85.7836 9.62423L86.2086 8.6909C86.4503 8.2159 86.8253 7.94922 87.2503 7.94922C87.6753 7.94922 88.0586 8.22424 88.2919 8.69924L88.7836 9.68257L89.6086 9.78256C90.1169 9.8659 90.4836 10.1492 90.6169 10.5492C90.7419 10.9492 90.6086 11.3909 90.2419 11.7576L89.5503 12.4492L89.7669 13.2242C89.9586 14.0492 89.5836 14.4242 89.4086 14.5492C89.3169 14.6242 89.1169 14.7409 88.8253 14.7409ZM85.2586 10.9909L85.8336 11.5659C86.1003 11.8325 86.2336 12.2826 86.1503 12.6492L85.9919 13.3159L86.6586 12.9242C87.0169 12.7159 87.5003 12.7159 87.8503 12.9242L88.5169 13.3159L88.3669 12.6492C88.2836 12.2742 88.4086 11.8325 88.6753 11.5659L89.2503 10.9909L88.5253 10.8659C88.1753 10.8076 87.8253 10.5492 87.6669 10.2326L87.2503 9.41589L86.8336 10.2492C86.6836 10.5576 86.3336 10.8242 85.9836 10.8826L85.2586 10.9909Z" fill="#2FB93C"/>
</svg>
